<?xml version="1.0" encoding="UTF-8" standalone="no"?>
<svg
   width="24"
   height="24"
   viewBox="0 0 2.5924051 2.592"
   preserveAspectRatio="xMinYMin"
   version="1.1"
   id="svg5"
   sodipodi:docname="angular-icon.svg"
   inkscape:version="1.3.2 (1:1.3.2+202311252150+091e20ef0f)"
   xmlns:inkscape="http://www.inkscape.org/namespaces/inkscape"
   xmlns:sodipodi="http://sodipodi.sourceforge.net/DTD/sodipodi-0.dtd"
   xmlns="http://www.w3.org/2000/svg"
   xmlns:svg="http://www.w3.org/2000/svg">
  <defs
     id="defs5" />
  <sodipodi:namedview
     id="namedview5"
     pagecolor="#ffffff"
     bordercolor="#000000"
     borderopacity="0.25"
     inkscape:showpageshadow="2"
     inkscape:pageopacity="0.0"
     inkscape:pagecheckerboard="0"
     inkscape:deskcolor="#d1d1d1"
     inkscape:zoom="20.48"
     inkscape:cx="14.941406"
     inkscape:cy="9.1308594"
     inkscape:window-width="1920"
     inkscape:window-height="1022"
     inkscape:window-x="0"
     inkscape:window-y="34"
     inkscape:window-maximized="1"
     inkscape:current-layer="svg5" />
  <path
     d="M 1.297444,0.01899903 0.09692927,0.44149056 0.28664277,2.0143571 1.2987126,2.5706072 2.3160107,2.0068181 2.5056488,0.43400848 Z"
     fill="#b3b3b3"
     id="path1"
     style="stroke-width:0.00947097" />
  <path
     d="M 2.3859069,0.5249109 1.29464,0.15277673 V 2.4377101 L 2.2091689,1.9315711 2.3858972,0.5249109 Z"
     fill="#a6120d"
     id="path2"
     style="stroke-width:0.00947097" />
  <path
     d="M 0.23164499,0.53161673 0.3942142,1.9382954 1.2946214,2.4377101 V 0.15273896 L 0.23165466,0.53160717 Z"
     fill="#dd1b16"
     id="path3"
     style="stroke-width:0.00947097" />
  <path
     d="M 1.595032,1.3691549 1.29464,1.5096288 H 0.9780345 L 0.82920752,1.8818864 0.55238925,1.887002 1.29464,0.23575326 1.595032,1.3691657 Z M 1.5659937,1.2984351 1.2966389,0.76519019 1.0756899,1.2892578 h 0.2189412 l 0.2713626,0.00918 z"
     fill="#f2f2f2"
     id="path4"
     style="stroke-width:0.00947097" />
  <path
     d="m 1.2946311,0.23574243 0.00199,0.52944776 0.2506971,0.52447501 H 1.2951989 l -5.755e-4,0.2196227 0.3486271,3.198e-4 0.1629387,0.3774384 0.2648755,0.0049 z"
     fill="#b3b3b3"
     id="path5"
     style="stroke-width:0.00947097" />
</svg>
