<?xml version="1.0" encoding="UTF-8" standalone="no"?>
<!-- Created with Inkscape (http://www.inkscape.org/) -->

<svg
   width="23"
   height="23"
   viewBox="0 0 6.0854167 6.0854166"
   version="1.1"
   id="svg5"
   inkscape:version="1.2.1 (9c6d41e, 2022-07-14)"
   sodipodi:docname="DII.svg"
   inkscape:export-filename="DII2022.png"
   inkscape:export-xdpi="96"
   inkscape:export-ydpi="96"
   xmlns:inkscape="http://www.inkscape.org/namespaces/inkscape"
   xmlns:sodipodi="http://sodipodi.sourceforge.net/DTD/sodipodi-0.dtd"
   xmlns:xlink="http://www.w3.org/1999/xlink"
   xmlns="http://www.w3.org/2000/svg"
   xmlns:svg="http://www.w3.org/2000/svg">
  <sodipodi:namedview
     id="namedview7"
     pagecolor="#ffffff"
     bordercolor="#000000"
     borderopacity="0.25"
     inkscape:showpageshadow="2"
     inkscape:pageopacity="0.0"
     inkscape:pagecheckerboard="0"
     inkscape:deskcolor="#d1d1d1"
     inkscape:document-units="mm"
     showgrid="false"
     showguides="true"
     inkscape:zoom="23.632547"
     inkscape:cx="10.89599"
     inkscape:cy="14.323467"
     inkscape:window-width="1920"
     inkscape:window-height="1056"
     inkscape:window-x="1920"
     inkscape:window-y="0"
     inkscape:window-maximized="1"
     inkscape:current-layer="layer1" />
  <defs
     id="defs2">
    <inkscape:path-effect
       effect="powerclip"
       id="path-effect2389"
       is_visible="true"
       lpeversion="1"
       inverse="true"
       flatten="false"
       hide_clip="false"
       message="Utilise la règle de remplissage « fill-rule: evenodd » de la boîte de dialogue &lt;b&gt;Fond et contour&lt;/b&gt; en l'absence de résultat de mise à plat après une conversion en chemin." />
    <linearGradient
       inkscape:collect="always"
       id="linearGradient2367">
      <stop
         style="stop-color:#474747;stop-opacity:1;"
         offset="0"
         id="stop2365" />
      <stop
         style="stop-color:#000000;stop-opacity:1;"
         offset="0.70574713"
         id="stop2363" />
    </linearGradient>
    <linearGradient
       inkscape:collect="always"
       id="linearGradient2357">
      <stop
         style="stop-color:#7e7e7e;stop-opacity:1;"
         offset="0.41609195"
         id="stop2355" />
      <stop
         style="stop-color:#000000;stop-opacity:1;"
         offset="1"
         id="stop2353" />
    </linearGradient>
    <linearGradient
       inkscape:collect="always"
       id="linearGradient13273">
      <stop
         style="stop-color:#6b6b6b;stop-opacity:1;"
         offset="0"
         id="stop13269" />
      <stop
         style="stop-color:#ffffff;stop-opacity:1;"
         offset="1"
         id="stop13271" />
    </linearGradient>
    <linearGradient
       inkscape:collect="always"
       id="linearGradient10481">
      <stop
         style="stop-color:#aeaeae;stop-opacity:1;"
         offset="0"
         id="stop10477" />
      <stop
         style="stop-color:#2e2e2e;stop-opacity:1;"
         offset="1"
         id="stop10479" />
    </linearGradient>
    <linearGradient
       id="linearGradient10413"
       inkscape:swatch="gradient">
      <stop
         style="stop-color:#000000;stop-opacity:1;"
         offset="0"
         id="stop10409" />
      <stop
         style="stop-color:#000000;stop-opacity:0;"
         offset="1"
         id="stop10411" />
    </linearGradient>
    <linearGradient
       id="linearGradient8761"
       inkscape:swatch="solid">
      <stop
         style="stop-color:#000000;stop-opacity:1;"
         offset="0"
         id="stop8759" />
    </linearGradient>
    <radialGradient
       inkscape:collect="always"
       xlink:href="#linearGradient10481"
       id="radialGradient10483"
       cx="269.9592"
       cy="215.2579"
       fx="269.9592"
       fy="215.2579"
       r="50.471008"
       gradientTransform="matrix(-1.6300628,-0.00254851,5.4761994e-4,-0.35026438,709.89177,291.34307)"
       gradientUnits="userSpaceOnUse" />
    <radialGradient
       inkscape:collect="always"
       xlink:href="#linearGradient13273"
       id="radialGradient13277"
       cx="220.86118"
       cy="242.33279"
       fx="220.86118"
       fy="242.33279"
       r="88.228271"
       gradientTransform="matrix(1,0,0,0.23277024,0,185.92493)"
       gradientUnits="userSpaceOnUse" />
    <radialGradient
       inkscape:collect="always"
       xlink:href="#linearGradient10481"
       id="radialGradient13279"
       gradientUnits="userSpaceOnUse"
       gradientTransform="matrix(-0.4031212,-6.3025695e-4,1.3542865e-4,-0.08662182,-20.802195,-1401.5557)"
       cx="269.9592"
       cy="215.2579"
       fx="269.9592"
       fy="215.2579"
       r="50.471008" />
    <radialGradient
       inkscape:collect="always"
       xlink:href="#linearGradient10481"
       id="radialGradient13281"
       gradientUnits="userSpaceOnUse"
       gradientTransform="matrix(-0.4031212,-6.3025695e-4,1.3542865e-4,-0.08662182,-20.802195,-1401.5557)"
       cx="269.9592"
       cy="215.2579"
       fx="269.9592"
       fy="215.2579"
       r="50.471008" />
    <radialGradient
       inkscape:collect="always"
       xlink:href="#linearGradient10481"
       id="radialGradient13283"
       gradientUnits="userSpaceOnUse"
       gradientTransform="matrix(-0.4031212,-6.3025695e-4,1.3542865e-4,-0.08662182,-20.802195,-1401.5557)"
       cx="269.9592"
       cy="215.2579"
       fx="269.9592"
       fy="215.2579"
       r="50.471008" />
    <radialGradient
       inkscape:collect="always"
       xlink:href="#linearGradient10481"
       id="radialGradient13285"
       gradientUnits="userSpaceOnUse"
       gradientTransform="matrix(-0.4031212,-6.3025695e-4,1.3542865e-4,-0.08662182,-20.802195,-1401.5557)"
       cx="269.9592"
       cy="215.2579"
       fx="269.9592"
       fy="215.2579"
       r="50.471008" />
    <clipPath
       clipPathUnits="userSpaceOnUse"
       id="clipPath15478">
      <g
         inkscape:label="Clip"
         id="use15480"
         style="display:inline" />
    </clipPath>
    <linearGradient
       inkscape:collect="always"
       xlink:href="#linearGradient2357"
       id="linearGradient2359"
       x1="18.718454"
       y1="120.1123"
       x2="70.614014"
       y2="120.1123"
       gradientUnits="userSpaceOnUse" />
    <linearGradient
       inkscape:collect="always"
       xlink:href="#linearGradient2367"
       id="linearGradient2369"
       x1="28.195198"
       y1="127.07639"
       x2="90.861443"
       y2="127.07639"
       gradientUnits="userSpaceOnUse"
       gradientTransform="matrix(0.24730409,0,0,0.24730409,-329.30525,-1812.8776)" />
    <clipPath
       clipPathUnits="userSpaceOnUse"
       id="clipPath2378">
      <use
         x="0"
         y="0"
         xlink:href="#g2374"
         id="use2380" />
    </clipPath>
    <clipPath
       clipPathUnits="userSpaceOnUse"
       id="clipPath2385">
      <path
         id="path2387"
         style="display:none;fill:#000000;stroke-width:0.210679"
         d="m 69.362616,116.03492 c -5.396229,3.19345 -14.005657,2.33217 -20.387497,4.59933 -6.229911,2.21319 -14.157329,10.73268 -14.157329,10.73268 0,0 20.575371,-5.20047 32.975901,-4.82153 -0.969409,-3.36369 1.072116,-5.82328 1.568925,-10.51048 z"
         inkscape:label="Skull"
         sodipodi:nodetypes="csccc" />
      <path
         id="lpe_path-effect2389"
         style="display:inline;fill:#000000;stroke-width:0.210679"
         class="powerclip"
         d="M 16.362967,93.826451 H 99.195111 V 155.8796 H 16.362967 Z m 52.999649,22.208469 c -5.396229,3.19345 -14.005657,2.33217 -20.387497,4.59933 -6.229911,2.21319 -14.157329,10.73268 -14.157329,10.73268 0,0 20.575371,-5.20047 32.975901,-4.82153 -0.969409,-3.36369 1.072116,-5.82328 1.568925,-10.51048 z"
         sodipodi:nodetypes="ccccccsccc" />
    </clipPath>
  </defs>
  <g
     inkscape:label="Graf"
     inkscape:groupmode="layer"
     id="layer1"
     transform="matrix(0.1691671,0,0,0.14092468,55.162649,252.90957)">
    <path
       id="path1127"
       style="display:inline;fill:#7e7e7e;fill-opacity:1;stroke-width:0.0583464"
       d="m -325.84033,-1780.2491 v 23.346 h 0.003 v 3.7488 h 23.82258 6.48992 v -10.9918 l 0.0118,-7.4176 -6.49155,5.1805 h -0.009 -0.0187 l 0.008,-5.1805 -6.49168,5.1805 h -0.008 l 0.008,-5.2055 -6.51999,5.203 0.008,-5.1701 -6.48175,5.1726 h -0.0467 v -13.8659 z"
       inkscape:label="Factory" />
    <path
       id="path1130"
       style="display:inline;fill:#474747;fill-opacity:1;stroke-width:0.0583464"
       d="m -324.94534,-1779.4798 v 23.346 h 0.003 v 3.7488 h 23.82255 6.48992 v -10.9919 l 0.0118,-7.4175 -6.49155,5.1804 h -0.009 -0.0187 l 0.008,-5.1804 -6.49165,5.1804 h -0.008 l 0.008,-5.2053 -6.51999,5.203 0.008,-5.1702 -6.48175,5.1725 h -0.0467 v -13.8658 z"
       inkscape:label="Factory" />
    <path
       id="rect111"
       style="display:inline;fill:#000000;stroke-width:0.0583464"
       d="m -324.04748,-1778.6336 v 23.346 h 0.003 v 3.7488 h 23.82251 6.48992 v -10.9918 l 0.0118,-7.4176 -6.49155,5.1804 h -0.009 -0.0187 l 0.008,-5.1804 -6.49162,5.1804 h -0.008 l 0.008,-5.2054 -6.52,5.203 0.008,-5.1701 -6.48175,5.1725 h -0.0467 v -13.8658 z"
       inkscape:label="Factory" />
    <path
       style="fill:url(#linearGradient2369);fill-opacity:1;stroke:none;stroke-width:0.146664;stroke-linecap:round"
       d="m -321.90195,-1780.9398 c 0,0 2.27557,-1.957 4.07832,-1.795 1.80275,0.1621 2.1057,3.5942 4.16895,4.0253 2.06325,0.4312 6.81986,-2.8286 6.81986,-2.8286 l -4.80336,-1.5231 c 0,0 -0.79042,1.9289 -2.03916,2.0127 -1.24873,0.084 -2.31404,-3.2549 -4.07831,-3.1822 -1.76429,0.072 -4.1463,3.2909 -4.1463,3.2909 z"
       id="path1191"
       sodipodi:nodetypes="czzcczzc" />
    <path
       id="path974"
       style="display:inline;fill:#000000;stroke-width:0.0521015"
       d="m -307.37932,-1794.4879 c -2.47846,0.013 -4.40558,0.6102 -5.10679,1.7775 -0.52134,0.8678 -0.28467,1.9141 0.53971,2.973 -0.61953,0.055 -1.06023,0.2226 -1.23026,0.5057 -0.32716,0.5446 0.43384,1.3745 1.82474,2.1372 -1.4e-4,0 -2.5e-4,0 -2.5e-4,0 0.81043,0.4846 0.0488,2.4388 -0.79932,2.9129 -1.3265,0.7417 -3.46366,0.5767 -5.04191,1.1374 -0.77035,0.2737 -1.65324,0.9249 -2.32835,1.5324 -0.61862,0.5567 -1.301,1.8335 -1.301,1.8335 0,0 1.01977,-0.8794 2.06239,-1.1554 1.65543,-0.3099 4.68752,-0.7955 6.22086,-0.7486 1.89355,0.058 4.58906,1.4623 6.14938,1.078 1.42378,-0.3506 1.03899,-2.9294 2.29203,-2.5663 l 1.21431,0.4147 c 0.71885,0.2456 1.46011,0.1726 1.66209,-0.1636 l 0.32627,-0.543 c 2.26735,0.6079 4.24647,0.5975 4.65593,-0.084 0.16147,-0.2689 0.0578,-0.6072 -0.25573,-0.9726 1.64176,-0.2236 2.87437,-0.7833 3.40487,-1.6664 1.2822,-2.1343 -2.02017,-5.3476 -7.37608,-7.177 -2.42691,-0.8289 -4.85906,-1.2316 -6.91265,-1.2254 z m -0.50683,4.267 c 0.0703,0 0.14265,0 0.21636,0.013 1.49274,1.0326 2.49782,1.5697 3.14767,1.8484 -0.009,0.029 -0.0219,0.056 -0.0381,0.084 -0.28797,0.4795 -1.54164,0.5194 -2.80017,0.089 -1.25853,-0.4299 -2.04531,-1.1669 -1.75735,-1.6463 0.16198,-0.2696 0.62956,-0.4004 1.23165,-0.3865 z m 5.38114,2.5483 c 0.70634,0.1846 1.90464,0.4001 3.91849,0.5652 0.51792,0.3646 0.76153,0.7673 0.58062,1.0684 -0.28797,0.4794 -1.54164,0.5195 -2.80017,0.089 -1.25853,-0.43 -2.04531,-1.167 -1.75735,-1.6463 0.0163,-0.028 0.036,-0.053 0.0585,-0.077 z m -1.68064,0.6001 c 0.0505,0 0.0925,0.013 0.12413,0.018 0.33607,0.1166 0.8538,1.306 0.602,1.3837 -0.25179,0.077 -2.31621,-0.6348 -2.40049,-0.8285 -0.0764,-0.1757 1.18674,-0.5842 1.67439,-0.5729 z"
       inkscape:label="Skull"
       sodipodi:nodetypes="ssccccsssccssccscscssssscccssssccssscscssss" />
    <g
       id="g2376"
       clip-path="url(#clipPath2378)"
       transform="matrix(0.24730408,0,0,0.24730408,-329.30522,-1812.8775)">
      <g
         inkscape:label="Clip"
         id="g2374"
         style="display:inline">
        <path
           style="fill:url(#linearGradient2359);fill-opacity:1;stroke:none;stroke-width:0.593052;stroke-linecap:round"
           d="m 21.362967,128.52825 c 0,0 31.01956,-28.12315 27.272892,-13.99809 -7.111116,22.2409 0.204968,35.74558 10.91502,36.33321 14.441083,0.79235 34.644232,-27.69926 34.644232,-27.69926 l -22.364488,0.11322 c 0,0 -6.028017,16.54375 -11.392313,14.71078 C 49.961241,134.40812 64.28311,104.2298 54.128293,99.497256 41.473837,93.599785 21.362967,128.52825 21.362967,128.52825 Z"
           id="path2274"
           sodipodi:nodetypes="ccsccaac"
           clip-path="url(#clipPath2385)"
           inkscape:path-effect="#path-effect2389"
           inkscape:original-d="m 21.362967,128.52825 c 0,0 31.01956,-28.12315 27.272892,-13.99809 -7.111116,22.2409 0.204968,35.74558 10.91502,36.33321 14.441083,0.79235 34.644232,-27.69926 34.644232,-27.69926 l -22.364488,0.11322 c 0,0 -6.028017,16.54375 -11.392313,14.71078 C 49.961241,134.40812 64.28311,104.2298 54.128293,99.497256 41.473837,93.599785 21.362967,128.52825 21.362967,128.52825 Z" />
      </g>
    </g>
  </g>
  <g
     inkscape:groupmode="layer"
     id="layer2"
     inkscape:label="DARK"
     transform="matrix(0.1691671,0,0,0.1691671,25.283739,244.68108)"
     inkscape:highlight-color="#ba0000">
    <g
       id="g1408"
       inkscape:label="g1408"
       style="display:inline;opacity:1;mix-blend-mode:normal;fill:none;fill-opacity:0;stroke:url(#radialGradient10483);stroke-width:4.03019;stroke-dasharray:none;stroke-opacity:1"
       inkscape:groupmode="layer">
      <path
         style="mix-blend-mode:normal;fill:none;fill-opacity:0;stroke:url(#radialGradient13279);stroke-width:0.996683;stroke-dasharray:none;stroke-opacity:1"
         d="m -138.48529,-1417.1639 c 0.73137,-0.013 0.72852,-0.2713 0.73975,-0.9056 0.004,-0.2337 -0.005,-1.9057 -0.005,-1.9057 0,0 -0.003,-2.3783 7.4e-4,-2.7165 0.007,-0.7626 -0.31399,-0.8629 -1.09988,-0.3593 -1.18512,0.7595 -2.73041,1.8467 -2.73041,1.8467 l -0.003,4.0431 c 1.0421,-0.013 2.0449,0 3.0971,0 z"
         id="path303"
         sodipodi:nodetypes="cscssccc" />
      <path
         style="mix-blend-mode:normal;fill:none;fill-opacity:0;stroke:url(#radialGradient13281);stroke-width:0.996683;stroke-linecap:round;stroke-dasharray:none;stroke-opacity:1"
         d="m -118.2343,-1421.8456 -3.94271,2.6359 3.93163,2.0529"
         id="path2698"
         sodipodi:nodetypes="ccc" />
      <path
         style="display:inline;mix-blend-mode:normal;fill:none;fill-opacity:0;stroke:url(#radialGradient13283);stroke-width:0.996683;stroke-dasharray:none;stroke-opacity:1"
         d="m -134.06363,-1421.892 c -6.77896,4.5445 -6.77896,4.5445 -6.77896,4.5445"
         id="path487" />
      <path
         style="mix-blend-mode:normal;fill:none;fill-opacity:0;stroke:url(#radialGradient13285);stroke-width:0.996683;stroke-dasharray:none;stroke-opacity:1"
         d="m -131.25353,-1416.6599 -0.007,-7.1124 -2.7138,1.8129 0.003,4.3307 c 0,0 5.85203,-3.8705 8.54478,-5.6988 0.19723,-0.134 0.69871,-0.081 0.69773,0.157 -0.005,1.1845 -0.008,1.3037 -1e-5,2.0545 0.003,0.2806 -0.10696,0.5885 -0.58697,0.6036 -0.45385,0.014 -2.01656,0 -2.01656,0 l 0.0606,2.8494 9.87481,-6.6677"
         id="path1964"
         sodipodi:nodetypes="ccccssssccc" />
    </g>
    <path
       style="fill:#000000;stroke:#000000;stroke-width:0.247304;stroke-linecap:round;stroke-dasharray:none;stroke-opacity:1"
       d="m -133.39995,-1421.5849 c -2.46904,1.6517 -2.46904,1.6517 -2.46904,1.6517"
       id="path1043" />
    <path
       style="fill:#000000;stroke:#000000;stroke-width:0.247304;stroke-linecap:round;stroke-dasharray:none;stroke-opacity:1"
       d="m -140.11397,-1418.5783 c -2.46903,1.6516 -2.46903,1.6516 -2.46903,1.6516"
       id="path1261" />
    <path
       style="fill:#000000;stroke:#000000;stroke-width:0.247304;stroke-linecap:round;stroke-dasharray:none;stroke-opacity:1"
       d="m -136.3863,-1421.0732 c -2.46905,1.6516 -2.46905,1.6516 -2.46905,1.6516"
       id="path1263" />
    <path
       style="fill:#000000;stroke:#000000;stroke-width:0.247304;stroke-linecap:round;stroke-dasharray:none;stroke-opacity:1"
       d="m -136.29234,-1419.6544 c -2.46905,1.6515 -2.46905,1.6515 -2.46905,1.6515"
       id="path1265" />
    <path
       style="fill:#000000;stroke:#000000;stroke-width:0.247304;stroke-linecap:round;stroke-dasharray:none;stroke-opacity:1"
       d="m -130.24665,-1420.8403 c -2.46905,1.6517 -2.46905,1.6517 -2.46905,1.6517"
       id="path1267" />
    <path
       style="fill:#000000;stroke:#000000;stroke-width:0.247304;stroke-linecap:round;stroke-dasharray:none;stroke-opacity:1"
       d="m -130.23099,-1419.3679 c -2.46905,1.6516 -2.46905,1.6516 -2.46905,1.6516"
       id="path1269" />
    <path
       style="fill:#000000;fill-opacity:1;stroke:none;stroke-width:0.939681;stroke-linecap:round;stroke-dasharray:none;stroke-opacity:1"
       d="m -117.74462,-1424.9892 0.0142,2.1869 0.62205,-0.016 -0.007,-2.3299 z"
       id="path8007" />
  </g>
  <g
     inkscape:groupmode="layer"
     id="layer3"
     inkscape:label="Industries"
     inkscape:highlight-color="#09a72c"
     transform="matrix(0.09382161,0,0,0.08578872,49.954945,265.0091)">
    <text
       xml:space="preserve"
       style="font-style:normal;font-variant:normal;font-weight:bold;font-stretch:normal;font-size:14.0329px;font-family:Steelfish;-inkscape-font-specification:'Steelfish Bold';opacity:1;fill:none;fill-opacity:0;stroke:#616161;stroke-width:0.292347;stroke-linecap:round;stroke-dasharray:none;stroke-opacity:1"
       x="-439.19012"
       y="-3572.1594"
       id="text13265"
       transform="scale(1.1830342,0.8452841)"><tspan
         sodipodi:role="line"
         id="tspan13263"
         style="font-style:normal;font-variant:normal;font-weight:bold;font-stretch:normal;font-size:14.0329px;font-family:Steelfish;-inkscape-font-specification:'Steelfish Bold';stroke:#616161;stroke-width:0.292347;stroke-opacity:1"
         x="-439.19012"
         y="-3572.1594">NDUSTRIES</tspan></text>
  </g>
  <g
     inkscape:groupmode="layer"
     id="layer4"
     inkscape:label="Inc"
     inkscape:highlight-color="#08359a"
     transform="matrix(0.09745822,0,0,0.0971799,47.226765,261.97855)">
    <path
       id="text13405"
       style="font-size:5.30828px;font-family:'Agency FB';-inkscape-font-specification:'Agency FB';opacity:1;fill:#616161;fill-opacity:1;stroke:none;stroke-width:0.0273483;stroke-linecap:round;stroke-dasharray:none;stroke-opacity:1"
       d="m -428.678,-2642.7508 h -0.62662 l -9.9e-4,0.1426 h 0.62651 z m -0.003,0.4105 h -0.6266 l -7.5e-4,0.1344 h 0.46074 l -0.46369,0.4328 -5e-4,0.098 h 0.62651 l 9.9e-4,-0.1345 h -0.4528 l 0.45552,-0.4246 z m -0.0506,0.9191 h -0.53768 c -0.0131,1e-4 -0.0238,0.013 -0.0322,0.032 -0.008,0.021 -0.0131,0.049 -0.0131,0.082 l -0.003,0.4137 c -2.3e-4,0.034 0.004,0.062 0.0118,0.083 0.008,0.022 0.0187,0.033 0.0317,0.033 h 0.15895 l 0.001,-0.1437 h -0.1542 l 0.003,-0.3572 h 0.52803 l -0.003,0.3573 h -0.14091 l -10e-4,0.1437 h 0.14568 c 0.0131,0 0.0237,-0.013 0.0323,-0.033 0.008,-0.022 0.0131,-0.05 0.0131,-0.083 l 0.003,-0.4136 c 2.3e-4,-0.034 -0.004,-0.062 -0.0118,-0.083 -0.008,-0.021 -0.0188,-0.032 -0.0317,-0.032 z" />
  </g>
</svg>
