<?xml version="1.0" encoding="UTF-8" standalone="no"?>
<svg
   height="24"
   width="24"
   version="1.1"
   id="svg23"
   sodipodi:docname="gimp.svg"
   inkscape:version="1.3.2 (1:1.3.2+202311252150+091e20ef0f)"
   xmlns:inkscape="http://www.inkscape.org/namespaces/inkscape"
   xmlns:sodipodi="http://sodipodi.sourceforge.net/DTD/sodipodi-0.dtd"
   xmlns:xlink="http://www.w3.org/1999/xlink"
   xmlns="http://www.w3.org/2000/svg"
   xmlns:svg="http://www.w3.org/2000/svg">
  <defs
     id="defs23" />
  <sodipodi:namedview
     id="namedview23"
     pagecolor="#ffffff"
     bordercolor="#000000"
     borderopacity="0.25"
     inkscape:showpageshadow="2"
     inkscape:pageopacity="0.0"
     inkscape:pagecheckerboard="0"
     inkscape:deskcolor="#d1d1d1"
     inkscape:zoom="24.336258"
     inkscape:cx="9.9645556"
     inkscape:cy="14.505106"
     inkscape:window-width="1473"
     inkscape:window-height="1046"
     inkscape:window-x="95"
     inkscape:window-y="111"
     inkscape:window-maximized="0"
     inkscape:current-layer="svg23" />
  <linearGradient
     id="a">
    <stop
       offset="0"
       stop-color="#334545"
       id="stop1" />
    <stop
       offset="1"
       stop-color="#172525"
       id="stop2" />
  </linearGradient>
  <linearGradient
     id="b">
    <stop
       offset="0"
       stop-color="#cfd5d5"
       id="stop3" />
    <stop
       offset="1"
       stop-color="#fcfcfc"
       id="stop4" />
  </linearGradient>
  <linearGradient
     id="c">
    <stop
       offset="0"
       id="stop5" />
    <stop
       offset="1"
       stop-opacity="0"
       id="stop6" />
  </linearGradient>
  <radialGradient
     id="d"
     cx="15.415"
     cy="35.356998"
     gradientTransform="matrix(-0.09537546,-0.30988453,0.31550546,-0.08896536,11.105134,26.752922)"
     gradientUnits="userSpaceOnUse"
     r="7.579"
     xlink:href="#a" />
  <linearGradient
     id="e"
     gradientTransform="matrix(-0.05833574,-0.19802009,0.19802009,-0.05833574,15.820904,23.901699)"
     gradientUnits="userSpaceOnUse"
     x1="37.018002"
     x2="30.865"
     y1="19.24"
     y2="14.64">
    <stop
       offset="0"
       stop-color="#ffa92d"
       id="stop7" />
    <stop
       offset="1"
       stop-color="#cd7223"
       id="stop8" />
  </linearGradient>
  <linearGradient
     id="f"
     gradientTransform="matrix(0.49463088,0,0,0.52777115,-1.7292353,-1.2323413)"
     gradientUnits="userSpaceOnUse"
     x1="32.349998"
     x2="21.212999"
     xlink:href="#c"
     y1="28.083"
     y2="30.292999" />
  <linearGradient
     id="g"
     gradientUnits="userSpaceOnUse"
     x1="34.712002"
     x2="5.000001"
     y1="33.584999"
     y2="8"
     gradientTransform="matrix(0.50792094,0,0,0.50792094,-0.17389836,-0.27766237)">
    <stop
       offset="0"
       stop-color="#6c5548"
       id="stop9" />
    <stop
       offset="1"
       stop-color="#bb9d71"
       id="stop10" />
  </linearGradient>
  <radialGradient
     id="h"
     cx="22.000002"
     cy="21"
     gradientUnits="userSpaceOnUse"
     r="5"
     xlink:href="#b" />
  <radialGradient
     id="i"
     cx="13.500001"
     cy="20.5"
     gradientUnits="userSpaceOnUse"
     r="4.5"
     xlink:href="#b" />
  <radialGradient
     id="j"
     cx="3.4960001"
     cy="22.823"
     gradientTransform="matrix(1,0,0,1.0909092,1e-6,-3.363638)"
     gradientUnits="userSpaceOnUse"
     r="5.5"
     xlink:href="#a" />
  <linearGradient
     id="k"
     gradientUnits="userSpaceOnUse"
     x1="15.263001"
     x2="31.000002"
     xlink:href="#c"
     y1="17.832001"
     y2="34"
     gradientTransform="matrix(0.50792094,0,0,0.50792094,-0.17389836,-0.27766237)" />
  <radialGradient
     id="l"
     cx="23.5"
     cy="21.5"
     gradientUnits="userSpaceOnUse"
     r="2.5"
     xlink:href="#a" />
  <radialGradient
     id="m"
     cx="15"
     cy="21"
     gradientUnits="userSpaceOnUse"
     r="2"
     xlink:href="#a" />
  <linearGradient
     id="n"
     gradientUnits="userSpaceOnUse"
     x1="37.34"
     x2="38.347"
     y1="35.924"
     y2="33.508999"
     gradientTransform="matrix(0.50792094,0,0,0.50792094,-0.17389836,-0.27766237)">
    <stop
       offset="0"
       stop-color="#6f8181"
       id="stop11" />
    <stop
       offset="1"
       stop-color="#b0b8b8"
       id="stop12" />
  </linearGradient>
  <path
     d="m 18.994217,3.2944387 c -0.159772,-0.02443 -0.303311,0.06255 -0.389602,0.161702 -0.08629,0.09915 -0.146164,0.222032 -0.198305,0.376972 -0.09017,0.267953 -0.421337,1.262728 -1.615492,2.245963 -1.194155,0.983237 -3.253432,2.197776 -6.8225233,2.286467 -2.711862,0.03101 -4.372084,-1.713916 -5.062984,-4.071916 v 1.394418 l -0.01102,3.916547 0.02203,0.05158 c 0,0 0.194423,0.4171173 -0.01102,0.9791373 -0.205441,0.56202 -1.015646,1.293516 -2.826184,1.818397 l -0.221342,0.06349 0.04206,0.225191 c 0.100425,0.545365 0.500727,1.104293 1.091684,1.676536 0.590957,0.572244 1.382196,1.151148 2.303553,1.674552 1.842714,1.046808 4.202888,1.873964 6.4960203,1.91264 2.293131,0.03868 4.53675,-0.735756 6.021287,-2.880864 1.484537,-2.145108 2.208539,-5.8669693 1.615492,-11.1988923 l -0.001,-0.002 v -0.002 c -0.01885,-0.146406 -0.05228,-0.271406 -0.112159,-0.380936 -0.05988,-0.109531 -0.160723,-0.222585 -0.320494,-0.247017 z"
     fill="url(#g)"
     fill-rule="evenodd"
     id="path12"
     style="fill:url(#g);stroke-width:0.507921" />
  <path
     d="m 8.1740607,8.3560017 -3.27371,3.2737093 6.3450443,6.345044 c 0.181963,0.01265 0.364205,0.02869 0.545618,0.03174 2.293131,0.03868 4.537104,-0.735755 6.021641,-2.880864 0.204936,-0.296126 0.39395,-0.625803 0.568435,-0.982113 l -5.686333,-5.6863333 -2.21025,2.2092573 z"
     fill="url(#k)"
     opacity="0.2"
     id="path13"
     style="fill:url(#k);stroke-width:0.507921" />
  <path
     d="m 7.9528377,14.453059 c 3.3332683,0.71135 5.0307383,0.05177 6.0241953,-0.766733 -0.262317,-0.361528 -0.437066,-0.758043 -0.437066,-0.758043 0,0 0.890646,0.345132 1.300529,0.909652 0.408709,0.562904 0.151757,0.909723 0.04479,1.629953 -0.238121,-0.632587 -0.682582,-0.869816 -0.742755,-1.121162 -0.893436,1.317806 -3.119361,1.263062 -6.1896973,0.106333 z"
     fill="url(#f)"
     fill-rule="evenodd"
     id="path14"
     style="fill:url(#f);stroke-width:0.507921" />
  <path
     d="m 19.631051,7.2617897 c -0.04175,3.3210373 -0.721289,5.7706393 -1.818397,7.3559253 -1.484537,2.145109 -3.72851,2.919543 -6.021641,2.880864 C 9.4978817,17.459899 7.1378947,16.632748 5.2951797,15.58594 4.3738227,15.062536 3.5826357,14.483631 2.9916787,13.911388 2.4913007,13.426855 2.1295897,12.951126 1.9688927,12.485836 l -0.111107,0.03175 0.04167,0.225192 c 0.100425,0.545364 0.501271,1.104293 1.092228,1.676536 0.590957,0.572243 1.382144,1.151148 2.303501,1.674551 1.842715,1.046809 4.202702,1.873964 6.4958333,1.91264 2.293131,0.03868 4.537104,-0.735755 6.021641,-2.880864 1.152107,-1.664756 1.842535,-4.284206 1.818397,-7.8638463 z m -14.7356603,1.838237 -9.91e-4,0.504945 0.02182,0.05159 c 0,0 0.03298,0.08573 0.05754,0.2122953 0.07661,-0.4255803 -0.05754,-0.7202163 -0.05754,-0.7202163 l -0.02083,-0.04861 z"
     fill-rule="evenodd"
     opacity="0.2"
     id="path15"
     style="stroke-width:0.507921" />
  <path
     d="m 18.602808,17.702962 0.470535,-0.937051 C 17.32288,15.485272 14.054991,14.185752 14.054991,14.185752 l -0.514909,0.283058 c 0,0 2.967023,2.631556 5.062726,3.234152 z"
     fill="url(#e)"
     id="path16"
     style="fill:url(#e);stroke-width:0.507921" />
  <path
     d="m 18.619177,15.975826 -0.245364,0.16136 c -0.227261,0.124394 -0.411637,0.335823 -0.561189,0.580346 -0.171126,0.401975 -0.238703,0.653348 -0.209289,1.046089 l 0.355545,-0.06088 c 0,0 1.856412,0.532574 2.735216,0.812673 l 0.102797,-0.198033 0.361889,-0.700448 -2.539605,-1.301008 z"
     fill="url(#n)"
     id="path17"
     style="fill:url(#n);stroke-width:0.507921" />
  <path
     d="m 23.698386,21.055018 c -0.63337,-2.057884 -0.858013,-3.691838 -2.513217,-3.546441 -1.333865,0.11717 -1.427248,1.946522 -0.0489,2.451326 1.327789,0.486286 2.562113,1.095115 2.562113,1.095115 z"
     fill="url(#d)"
     id="path18"
     style="fill:url(#d);stroke-width:0.507921" />
  <g
     fill-rule="evenodd"
     id="g23"
     transform="matrix(0.50792094,0,0,0.50792094,-0.17389836,-0.27766237)">
    <path
       d="m 13.5,16 c -1.111289,0 -2.22859,0.367747 -3.081479,1.125962 C 9.5656322,17.884177 8.9997718,19.041023 9.0000006,20.5 8.9997718,21.958976 9.5656322,23.115822 10.418521,23.874037 11.27141,24.632253 12.388711,24.999999 13.5,25 14.611291,25 15.730516,24.632253 16.583406,23.874037 17.436293,23.115822 18.000229,21.958976 18.000001,20.5 18.000229,19.041023 17.436293,17.884177 16.583406,17.125962 15.730517,16.367747 14.611291,16 13.5,16 Z"
       fill="url(#i)"
       id="path19"
       style="fill:url(#i)" />
    <path
       d="m 5.1011379,19.000187 c -0.2440479,-0.0022 -0.4833734,0.01494 -0.716009,0.05181 -0.6203616,0.09837 -1.1947404,0.332781 -1.6899353,0.689006 -1.98077905,1.424897 -2.50243678,4.654223 -0.055818,8.03584 2.4466194,3.381618 5.6835966,3.90647 7.6643764,2.481573 1.980779,-1.424898 2.504362,-4.654224 0.05774,-8.035841 C 8.7559004,20.003391 6.8094733,19.015068 5.1011379,19.000182 Z"
       fill="url(#j)"
       id="path20"
       style="fill:url(#j)" />
    <path
       d="m 21.999075,16 c -1.236949,0 -2.480112,0.408944 -3.426561,1.250231 -0.946449,0.841289 -1.572513,2.123381 -1.572513,3.750696 0,1.627313 0.626064,2.907553 1.572513,3.748842 C 19.518963,25.591056 20.762126,26 21.999075,26 c 1.236949,0 2.480112,-0.408944 3.426561,-1.250231 0.946449,-0.841289 1.574365,-2.121529 1.574365,-3.748842 0,-1.627315 -0.627916,-2.909407 -1.574365,-3.750696 C 24.479187,16.408944 23.236024,16 21.999075,16 Z"
       fill="url(#h)"
       id="path21"
       style="fill:url(#h)" />
    <path
       d="m 23.5,19 c -0.612591,0 -1.231888,0.202543 -1.708984,0.626628 C 21.31392,20.050713 21,20.703894 21,21.5 c 0,0.796105 0.31392,1.449288 0.791016,1.873373 C 22.268112,23.797458 22.887409,24 23.5,24 24.112591,24 24.731888,23.797458 25.208984,23.373373 25.68608,22.949288 26,22.296105 26,21.5 26,20.703894 25.68608,20.050713 25.208984,19.626628 24.731888,19.202543 24.112591,19 23.5,19 Z"
       fill="url(#l)"
       id="path22"
       style="fill:url(#l)" />
    <path
       d="m 15,19 c -0.490073,0 -0.98551,0.162034 -1.367187,0.501302 C 13.251136,19.84057 13,20.363115 13,21 c 0,0.636884 0.251136,1.15943 0.632813,1.498698 C 14.01449,22.837966 14.509927,23 15,23 15.490073,23 15.98551,22.837966 16.367187,22.498698 16.748864,22.15943 17,21.636884 17,21 17,20.363115 16.748864,19.84057 16.367187,19.501302 15.98551,19.162034 15.490073,19 15,19 Z"
       fill="url(#m)"
       id="path23"
       style="fill:url(#m)" />
  </g>
</svg>
